<?xml version="1.0" encoding="utf-8" standalone="no"?>
<!DOCTYPE svg PUBLIC "-//W3C//DTD SVG 1.1//EN"
  "http://www.w3.org/Graphics/SVG/1.1/DTD/svg11.dtd">
<svg xmlns:xlink="http://www.w3.org/1999/xlink" width="757.44pt" height="366.48pt" viewBox="0 0 757.44 366.48" xmlns="http://www.w3.org/2000/svg" version="1.1">
 <metadata>
  <rdf:RDF xmlns:dc="http://purl.org/dc/elements/1.1/" xmlns:cc="http://creativecommons.org/ns#" xmlns:rdf="http://www.w3.org/1999/02/22-rdf-syntax-ns#">
   <cc:Work>
    <dc:type rdf:resource="http://purl.org/dc/dcmitype/StillImage"/>
    <dc:date>2026-09-20T13:39:58.994725</dc:date>
    <dc:format>image/svg+xml</dc:format>
    <dc:creator>
     <cc:Agent>
      <dc:title>Matplotlib v3.9.2, https://matplotlib.org/</dc:title>
     </cc:Agent>
    </dc:creator>
   </cc:Work>
  </rdf:RDF>
 </metadata>
 <defs>
  <style type="text/css">*{stroke-linejoin: round; stroke-linecap: butt}</style>
 </defs>
 <g id="figure_1">
  <g id="patch_1">
   <path d="M 0 366.48 
L 757.44 366.48 
L 757.44 0 
L 0 0 
z
" style="fill: #ffffff"/>
  </g>
  <g id="axes_1">
   <g id="patch_2">
    <path d="M 80.64 309.6 
L 750.24 309.6 
L 750.24 50.4 
L 80.64 50.4 
z
" style="fill: #ffffff"/>
   </g>
   <g id="PathCollection_1">
    <defs>
     <path id="m81c6fda96b" d="M 0 3 
C 0.795609 3 1.55874 2.683901 2.12132 2.12132 
C 2.683901 1.55874 3 0.795609 3 0 
C 3 -0.795609 2.683901 -1.55874 2.12132 -2.12132 
C 1.55874 -2.683901 0.795609 -3 0 -3 
C -0.795609 -3 -1.55874 -2.683901 -2.12132 -2.12132 
C -2.683901 -1.55874 -3 -0.795609 -3 0 
C -3 0.795609 -2.683901 1.55874 -2.12132 2.12132 
C -1.55874 2.683901 -0.795609 3 0 3 
z
" style="stroke: #90a4b7"/>
    </defs>
    <g clip-path="url(#p6a4047c146)">
     <use xlink:href="#m81c6fda96b" x="111.076364" y="138.620489" style="fill: #90a4b7; stroke: #90a4b7"/>
    </g>
   </g>
   <g id="matplotlib.axis_1">
    <g id="xtick_1">
     <g id="line2d_1">
      <defs>
       <path id="ma7726520be" d="M 0 0 
L 0 3.5 
" style="stroke: #000000; stroke-width: 0.8"/>
      </defs>
      <g>
       <use xlink:href="#ma7726520be" x="111.076364" y="309.6" style="stroke: #000000; stroke-width: 0.8"/>
      </g>
     </g>
     <g id="text_1">
      <text style="font: 10px 'DejaVu Sans'; text-anchor: middle" x="111.076364" y="324.36875" transform="rotate(-0 111.076364 324.36875)">Апрель: база</text>
     </g>
    </g>
    <g id="xtick_2">
     <g id="line2d_2">
      <g>
       <use xlink:href="#ma7726520be" x="263.258182" y="309.6" style="stroke: #000000; stroke-width: 0.8"/>
      </g>
     </g>
     <g id="text_2">
      <text style="font: 10px 'DejaVu Sans'; text-anchor: middle" x="263.258182" y="324.198437" transform="rotate(-0 263.258182 324.198437)">Май 1–24</text>
     </g>
    </g>
    <g id="xtick_3">
     <g id="line2d_3">
      <g>
       <use xlink:href="#ma7726520be" x="415.44" y="309.6" style="stroke: #000000; stroke-width: 0.8"/>
      </g>
     </g>
     <g id="text_3">
      <text style="font: 10px 'DejaVu Sans'; text-anchor: middle" x="415.44" y="324.198437" transform="rotate(-0 415.44 324.198437)">Июнь</text>
     </g>
    </g>
    <g id="xtick_4">
     <g id="line2d_4">
      <g>
       <use xlink:href="#ma7726520be" x="567.621818" y="309.6" style="stroke: #000000; stroke-width: 0.8"/>
      </g>
     </g>
     <g id="text_4">
      <text style="font: 10px 'DejaVu Sans'; text-anchor: middle" x="567.621818" y="324.198437" transform="rotate(-0 567.621818 324.198437)">Июль</text>
     </g>
    </g>
    <g id="xtick_5">
     <g id="line2d_5">
      <g>
       <use xlink:href="#ma7726520be" x="719.803636" y="309.6" style="stroke: #000000; stroke-width: 0.8"/>
      </g>
     </g>
     <g id="text_5">
      <text style="font: 10px 'DejaVu Sans'; text-anchor: middle" x="719.803636" y="324.198437" transform="rotate(-0 719.803636 324.198437)">Август</text>
     </g>
    </g>
   </g>
   <g id="matplotlib.axis_2">
    <g id="ytick_1">
     <g id="line2d_6">
      <defs>
       <path id="m257cf54b2b" d="M 0 0 
L -3.5 0 
" style="stroke: #000000; stroke-width: 0.8"/>
      </defs>
      <g>
       <use xlink:href="#m257cf54b2b" x="80.64" y="291.156884" style="stroke: #000000; stroke-width: 0.8"/>
      </g>
     </g>
     <g id="text_6">
      <text style="font: 10px 'DejaVu Sans'; text-anchor: end" x="73.64" y="294.956102" transform="rotate(-0 73.64 294.956102)">−4</text>
     </g>
    </g>
    <g id="ytick_2">
     <g id="line2d_7">
      <g>
       <use xlink:href="#m257cf54b2b" x="80.64" y="253.022785" style="stroke: #000000; stroke-width: 0.8"/>
      </g>
     </g>
     <g id="text_7">
      <text style="font: 10px 'DejaVu Sans'; text-anchor: end" x="73.64" y="256.822004" transform="rotate(-0 73.64 256.822004)">−3</text>
     </g>
    </g>
    <g id="ytick_3">
     <g id="line2d_8">
      <g>
       <use xlink:href="#m257cf54b2b" x="80.64" y="214.888687" style="stroke: #000000; stroke-width: 0.8"/>
      </g>
     </g>
     <g id="text_8">
      <text style="font: 10px 'DejaVu Sans'; text-anchor: end" x="73.64" y="218.687905" transform="rotate(-0 73.64 218.687905)">−2</text>
     </g>
    </g>
    <g id="ytick_4">
     <g id="line2d_9">
      <g>
       <use xlink:href="#m257cf54b2b" x="80.64" y="176.754588" style="stroke: #000000; stroke-width: 0.8"/>
      </g>
     </g>
     <g id="text_9">
      <text style="font: 10px 'DejaVu Sans'; text-anchor: end" x="73.64" y="180.553807" transform="rotate(-0 73.64 180.553807)">−1</text>
     </g>
    </g>
    <g id="ytick_5">
     <g id="line2d_10">
      <g>
       <use xlink:href="#m257cf54b2b" x="80.64" y="138.620489" style="stroke: #000000; stroke-width: 0.8"/>
      </g>
     </g>
     <g id="text_10">
      <text style="font: 10px 'DejaVu Sans'; text-anchor: end" x="73.64" y="142.419708" transform="rotate(-0 73.64 142.419708)">0</text>
     </g>
    </g>
    <g id="ytick_6">
     <g id="line2d_11">
      <g>
       <use xlink:href="#m257cf54b2b" x="80.64" y="100.486391" style="stroke: #000000; stroke-width: 0.8"/>
      </g>
     </g>
     <g id="text_11">
      <text style="font: 10px 'DejaVu Sans'; text-anchor: end" x="73.64" y="104.28561" transform="rotate(-0 73.64 104.28561)">1</text>
     </g>
    </g>
    <g id="ytick_7">
     <g id="line2d_12">
      <g>
       <use xlink:href="#m257cf54b2b" x="80.64" y="62.352292" style="stroke: #000000; stroke-width: 0.8"/>
      </g>
     </g>
     <g id="text_12">
      <text style="font: 10px 'DejaVu Sans'; text-anchor: end" x="73.64" y="66.151511" transform="rotate(-0 73.64 66.151511)">2</text>
     </g>
    </g>
    <g id="text_13">
     <text style="fill: #344960; font: 10px 'DejaVu Sans'; text-anchor: middle" x="52.818125" y="180" transform="rotate(-90 52.818125 180)">Разница новые–старые относительно апреля, п.п.</text>
    </g>
   </g>
   <g id="LineCollection_1">
    <path d="M 263.258182 245.014442 
L 263.258182 62.181818 
" clip-path="url(#p6a4047c146)" style="fill: none; stroke: #2878b7; stroke-width: 1.5"/>
    <path d="M 415.44 290.289767 
L 415.44 155.971269 
" clip-path="url(#p6a4047c146)" style="fill: none; stroke: #2878b7; stroke-width: 1.5"/>
    <path d="M 567.621818 290.376154 
L 567.621818 161.415374 
" clip-path="url(#p6a4047c146)" style="fill: none; stroke: #2878b7; stroke-width: 1.5"/>
    <path d="M 719.803636 297.818182 
L 719.803636 165.352455 
" clip-path="url(#p6a4047c146)" style="fill: none; stroke: #2878b7; stroke-width: 1.5"/>
   </g>
   <g id="line2d_13">
    <defs>
     <path id="m062a2ce89a" d="M 5 0 
L -5 -0 
" style="stroke: #2878b7"/>
    </defs>
    <g clip-path="url(#p6a4047c146)">
     <use xlink:href="#m062a2ce89a" x="263.258182" y="245.014442" style="fill: #2878b7; stroke: #2878b7"/>
     <use xlink:href="#m062a2ce89a" x="415.44" y="290.289767" style="fill: #2878b7; stroke: #2878b7"/>
     <use xlink:href="#m062a2ce89a" x="567.621818" y="290.376154" style="fill: #2878b7; stroke: #2878b7"/>
     <use xlink:href="#m062a2ce89a" x="719.803636" y="297.818182" style="fill: #2878b7; stroke: #2878b7"/>
    </g>
   </g>
   <g id="line2d_14">
    <g clip-path="url(#p6a4047c146)">
     <use xlink:href="#m062a2ce89a" x="263.258182" y="62.181818" style="fill: #2878b7; stroke: #2878b7"/>
     <use xlink:href="#m062a2ce89a" x="415.44" y="155.971269" style="fill: #2878b7; stroke: #2878b7"/>
     <use xlink:href="#m062a2ce89a" x="567.621818" y="161.415374" style="fill: #2878b7; stroke: #2878b7"/>
     <use xlink:href="#m062a2ce89a" x="719.803636" y="165.352455" style="fill: #2878b7; stroke: #2878b7"/>
    </g>
   </g>
   <g id="line2d_15">
    <path d="M 80.64 138.620489 
L 750.24 138.620489 
" clip-path="url(#p6a4047c146)" style="fill: none; stroke-dasharray: 5.55,2.4; stroke-dashoffset: 0; stroke: #cb594b; stroke-width: 1.5"/>
   </g>
   <g id="line2d_16">
    <path d="M 339.349091 309.6 
L 339.349091 50.4 
" clip-path="url(#p6a4047c146)" style="fill: none; stroke: #90a4b7; stroke-width: 1.5; stroke-linecap: square"/>
   </g>
   <g id="line2d_17">
    <path d="M 263.258182 153.59813 
L 415.44 223.130518 
L 567.621818 225.895764 
L 719.803636 231.585319 
" clip-path="url(#p6a4047c146)" style="fill: none; stroke: #2878b7; stroke-width: 1.5; stroke-linecap: square"/>
    <defs>
     <path id="m22e0c49961" d="M 0 3 
C 0.795609 3 1.55874 2.683901 2.12132 2.12132 
C 2.683901 1.55874 3 0.795609 3 0 
C 3 -0.795609 2.683901 -1.55874 2.12132 -2.12132 
C 1.55874 -2.683901 0.795609 -3 0 -3 
C -0.795609 -3 -1.55874 -2.683901 -2.12132 -2.12132 
C -2.683901 -1.55874 -3 -0.795609 -3 0 
C -3 0.795609 -2.683901 1.55874 -2.12132 2.12132 
C -1.55874 2.683901 -0.795609 3 0 3 
z
" style="stroke: #2878b7"/>
    </defs>
    <g clip-path="url(#p6a4047c146)">
     <use xlink:href="#m22e0c49961" x="263.258182" y="153.59813" style="fill: #2878b7; stroke: #2878b7"/>
     <use xlink:href="#m22e0c49961" x="415.44" y="223.130518" style="fill: #2878b7; stroke: #2878b7"/>
     <use xlink:href="#m22e0c49961" x="567.621818" y="225.895764" style="fill: #2878b7; stroke: #2878b7"/>
     <use xlink:href="#m22e0c49961" x="719.803636" y="231.585319" style="fill: #2878b7; stroke: #2878b7"/>
    </g>
   </g>
   <g id="patch_3">
    <path d="M 80.64 309.6 
L 80.64 50.4 
" style="fill: none; stroke: #b8c5d1; stroke-width: 0.8; stroke-linejoin: miter; stroke-linecap: square"/>
   </g>
   <g id="patch_4">
    <path d="M 80.64 309.6 
L 750.24 309.6 
" style="fill: none; stroke: #b8c5d1; stroke-width: 0.8; stroke-linejoin: miter; stroke-linecap: square"/>
   </g>
  </g>
  <g id="text_14">
   <text style="fill: #172d43; font: 700 17px 'DejaVu Sans'; text-anchor: start" x="7.2" y="20.117344" transform="rotate(-0 7.2 20.117344)">Изменение состава штрафов по месяцам</text>
  </g>
  <g id="text_15">
   <text style="fill: #52677c; font: 8px 'DejaVu Sans'; text-anchor: start" x="7.2" y="357.61625" transform="rotate(-0 7.2 357.61625)">Май — короткая проверка до периода после. Отсутствие значимого предтренда не доказывает параллельные тренды.</text>
  </g>
 </g>
 <defs>
  <clipPath id="p6a4047c146">
   <rect x="80.64" y="50.4" width="669.6" height="259.2"/>
  </clipPath>
 </defs>
</svg>
